<svg width="171" height="203" viewBox="0 0 171 203" fill="none" xmlns="http://www.w3.org/2000/svg">
  <g fill="#8F2E60">
    <path d="M6.92072 132.592V110.254H0V105.309H19.4147V110.254H12.6015V132.592H6.92072Z"/>
    <path d="M19.9966 132.592V112.601H25.127V117.401L24.7601 116.705C25.1966 115.023 25.9241 113.878 26.9426 113.284C27.9548 112.683 29.1567 112.386 30.5485 112.386H31.7188V117.148H29.9981C28.657 117.148 27.5689 117.559 26.7402 118.375C25.9115 119.191 25.4939 120.348 25.4939 121.834V132.598H19.9966V132.592Z"/>
    <path d="M41.6824 133.035C40.0692 133.035 38.6965 132.687 37.5641 131.991C36.4254 131.296 35.5651 130.328 34.9831 129.082C34.3948 127.836 34.1038 126.382 34.1038 124.725V112.601H39.6011V124.282C39.6011 125.041 39.7529 125.705 40.0566 126.28C40.3602 126.856 40.7967 127.299 41.3598 127.615C41.9228 127.931 42.5554 128.089 43.2639 128.089C43.9724 128.089 44.6367 127.931 45.187 127.615C45.7374 127.299 46.1613 126.85 46.4712 126.28C46.7749 125.705 46.9267 125.041 46.9267 124.282V112.601H52.4241V132.598H47.2936V128.646L47.5846 129.525C47.1228 130.72 46.37 131.605 45.3325 132.181C44.2951 132.756 43.0805 133.041 41.6887 133.041L41.6824 133.035Z"/>
    <path d="M56.8142 132.592V112.601H61.9446V116.553L61.6536 115.674C62.1155 114.479 62.8683 113.594 63.9057 113.018C64.9432 112.443 66.1578 112.158 67.5495 112.158C69.0615 112.158 70.39 112.474 71.5223 113.113C72.6547 113.745 73.5403 114.631 74.1793 115.769C74.8119 116.901 75.1345 118.229 75.1345 119.741V132.592H69.6371V120.911C69.6371 120.127 69.4853 119.456 69.1817 118.893C68.878 118.331 68.4478 117.894 67.8975 117.578C67.3471 117.262 66.7082 117.104 65.9743 117.104C65.2405 117.104 64.6332 117.262 64.0702 117.578C63.5072 117.894 63.077 118.337 62.767 118.893C62.4634 119.456 62.3116 120.127 62.3116 120.911V132.592H56.8142Z"/>
    <path d="M88.9381 140.649C87.4009 140.649 85.9712 140.39 84.6554 139.878C83.3396 139.365 82.2072 138.651 81.2646 137.734C80.322 136.817 79.6451 135.735 79.234 134.496L84.3264 132.699C84.5921 133.629 85.1425 134.356 85.9775 134.894C86.8063 135.432 87.7995 135.697 88.9445 135.697C89.8491 135.697 90.6272 135.533 91.2914 135.204C91.9494 134.875 92.4554 134.394 92.8097 133.756C93.164 133.123 93.3411 132.377 93.3411 131.523V126.944L94.4039 128.26C93.7206 129.386 92.8413 130.22 91.7659 130.771C90.6905 131.321 89.4316 131.593 87.9956 131.593C86.142 131.593 84.4783 131.169 83.0106 130.328C81.543 129.487 80.3979 128.323 79.5692 126.849C78.7405 125.37 78.323 123.694 78.323 121.815C78.323 119.937 78.7405 118.267 79.5692 116.819C80.3979 115.364 81.5366 114.226 82.9727 113.398C84.415 112.569 86.0471 112.152 87.8817 112.152C89.324 112.152 90.5829 112.436 91.652 113.012C92.7275 113.587 93.6447 114.46 94.3975 115.63L93.7017 116.946V112.588H98.8321V131.523C98.8321 133.281 98.4019 134.85 97.5479 136.228C96.6939 137.607 95.5299 138.689 94.0496 139.467C92.5693 140.244 90.8676 140.637 88.9381 140.637V140.649ZM88.7547 126.628C89.6846 126.628 90.488 126.432 91.1712 126.04C91.8545 125.648 92.3858 125.098 92.7654 124.389C93.145 123.681 93.3348 122.852 93.3348 121.898C93.3348 120.943 93.1386 120.108 92.7464 119.387C92.3542 118.666 91.8165 118.103 91.1333 117.704C90.4501 117.3 89.653 117.097 88.7547 117.097C87.8564 117.097 87.0024 117.3 86.2812 117.704C85.56 118.109 84.997 118.672 84.5984 119.387C84.1936 120.108 83.9912 120.943 83.9912 121.898C83.9912 122.852 84.1936 123.643 84.5984 124.351C85.0033 125.06 85.56 125.616 86.2812 126.015C87.0024 126.419 87.8247 126.622 88.7547 126.622V126.628Z"/>
    <path d="M115.495 132.592V110.254H108.574V105.309H127.989V110.254H121.176V132.592H115.495Z"/>
    <path d="M130.766 132.592V104.872H136.263V116.553L135.606 115.674C136.067 114.479 136.82 113.594 137.858 113.018C138.895 112.443 140.11 112.158 141.501 112.158C143.013 112.158 144.342 112.474 145.474 113.113C146.607 113.745 147.492 114.631 148.131 115.769C148.764 116.901 149.086 118.229 149.086 119.741V132.592H143.589V120.911C143.589 120.127 143.437 119.456 143.134 118.893C142.83 118.331 142.4 117.894 141.849 117.578C141.299 117.262 140.66 117.104 139.926 117.104C139.192 117.104 138.585 117.262 138.022 117.578C137.459 117.894 137.029 118.337 136.719 118.893C136.415 119.456 136.263 120.127 136.263 120.911V132.592H130.766Z"/>
    <path d="M160.258 133.035C158.645 133.035 157.272 132.687 156.14 131.991C155.001 131.296 154.141 130.328 153.559 129.082C152.971 127.836 152.68 126.382 152.68 124.725V112.601H158.177V124.282C158.177 125.041 158.329 125.705 158.633 126.28C158.936 126.856 159.373 127.299 159.936 127.615C160.499 127.931 161.131 128.089 161.84 128.089C162.548 128.089 163.213 127.931 163.763 127.615C164.313 127.299 164.737 126.85 165.047 126.28C165.351 125.705 165.503 125.041 165.503 124.282V112.601H171V132.598H165.87V128.646L166.161 129.525C165.699 130.72 164.946 131.605 163.908 132.181C162.871 132.756 161.656 133.041 160.265 133.041L160.258 133.035Z"/>
    <path d="M22.2423 167.673C20.2876 167.673 18.472 167.319 16.8019 166.611C15.1318 165.902 13.6705 164.916 12.4243 163.644C11.178 162.373 10.2101 160.887 9.51427 159.179C8.8184 157.472 8.47046 155.606 8.47046 153.576C8.47046 151.546 8.81207 149.674 9.49529 147.954C10.1785 146.234 11.1464 144.741 12.3863 143.489C13.6325 142.23 15.0875 141.256 16.7639 140.561C18.434 139.865 20.2623 139.517 22.2423 139.517C24.2224 139.517 26 139.846 27.5752 140.504C29.1504 141.161 30.4852 142.04 31.5859 143.141C32.6867 144.241 33.4648 145.462 33.9329 146.803L28.9163 149.219C28.4545 147.903 27.6384 146.809 26.4808 145.943C25.3231 145.076 23.9124 144.64 22.2486 144.64C20.5849 144.64 19.2184 145.019 17.9975 145.772C16.7766 146.531 15.8277 147.574 15.1571 148.902C14.4866 150.23 14.1513 151.793 14.1513 153.57C14.1513 155.347 14.4866 156.915 15.1571 158.256C15.8277 159.597 16.7766 160.647 17.9975 161.406C19.2184 162.165 20.6355 162.538 22.2486 162.538C23.8618 162.538 25.3168 162.108 26.4808 161.235C27.6384 160.368 28.4545 159.274 28.9163 157.959L33.9329 160.375C33.4711 161.715 32.6867 162.936 31.5859 164.037C30.4852 165.137 29.1504 166.016 27.5752 166.674C26 167.331 24.2224 167.66 22.2423 167.66V167.673Z"/>
    <path d="M37.5134 167.237V147.239H42.6439V152.039L42.277 151.344C42.7135 149.661 43.441 148.517 44.4594 147.922C45.4716 147.321 46.6736 147.024 48.0653 147.024H49.2356V151.786H47.5149C46.1738 151.786 45.0857 152.197 44.257 153.013C43.4283 153.829 43.0108 154.986 43.0108 156.473V167.237H37.5134Z"/>
    <path d="M61.6536 167.673C59.528 167.673 57.6871 167.205 56.1246 166.263C54.5621 165.32 53.3538 164.062 52.4998 162.474C51.6457 160.887 51.2156 159.129 51.2156 157.2C51.2156 155.271 51.6584 153.418 52.5504 151.856C53.4424 150.294 54.6443 149.061 56.1562 148.156C57.6682 147.252 59.3825 146.803 61.2867 146.803C62.8745 146.803 64.2789 147.056 65.4998 147.555C66.7208 148.055 67.7519 148.757 68.5933 149.661C69.4347 150.566 70.0799 151.609 70.5164 152.792C70.9529 153.975 71.1743 155.265 71.1743 156.656C71.1743 157.048 71.1554 157.434 71.1174 157.807C71.0794 158.187 71.0162 158.509 70.915 158.775H55.9348V154.746H67.8025L65.2025 156.65C65.4492 155.6 65.4366 154.664 65.1646 153.848C64.8989 153.032 64.4244 152.381 63.7538 151.906C63.0833 151.432 62.2546 151.192 61.2803 151.192C60.3061 151.192 59.5091 151.426 58.8258 151.887C58.1426 152.349 57.6302 153.032 57.2886 153.937C56.947 154.841 56.8141 155.941 56.8837 157.232C56.7888 158.357 56.9217 159.344 57.2886 160.198C57.6555 161.051 58.2185 161.716 58.9713 162.196C59.7305 162.67 60.6414 162.911 61.7168 162.911C62.6911 162.911 63.5324 162.715 64.2283 162.323C64.9242 161.931 65.4682 161.393 65.8604 160.71L70.257 162.797C69.8648 163.771 69.2512 164.631 68.4098 165.358C67.5685 166.092 66.569 166.661 65.4239 167.06C64.2726 167.464 63.02 167.667 61.6536 167.667V167.673Z"/>
    <path d="M80.9607 167.673C79.5184 167.673 78.2722 167.439 77.222 166.977C76.1719 166.516 75.3685 165.845 74.8055 164.979C74.2424 164.112 73.9641 163.082 73.9641 161.886C73.9641 160.761 74.2235 159.768 74.7359 158.901C75.2483 158.035 76.0391 157.307 77.0955 156.719C78.1583 156.131 79.4804 155.72 81.0683 155.473L87.1856 154.487V158.515L82.0551 159.432C81.2707 159.578 80.6761 159.831 80.2585 160.185C79.841 160.539 79.6386 161.045 79.6386 161.703C79.6386 162.316 79.8726 162.791 80.3344 163.132C80.7963 163.474 81.3719 163.644 82.0551 163.644C82.9598 163.644 83.7505 163.448 84.4337 163.056C85.117 162.664 85.6483 162.133 86.0279 161.463C86.4075 160.792 86.5973 160.052 86.5973 159.249V154.05C86.5973 153.291 86.2999 152.659 85.699 152.147C85.098 151.635 84.2882 151.375 83.2634 151.375C82.2386 151.375 81.4289 151.647 80.6824 152.178C79.9359 152.716 79.3919 153.424 79.0503 154.303L74.6537 152.216C75.0459 151.091 75.6658 150.129 76.5198 149.326C77.3738 148.523 78.3987 147.897 79.5943 147.46C80.7899 147.024 82.0994 146.803 83.5165 146.803C85.1992 146.803 86.6922 147.106 87.9827 147.72C89.2795 148.333 90.2854 149.181 91.0065 150.262C91.7277 151.35 92.0883 152.615 92.0883 154.05V167.237H86.9578V164.011L88.2041 163.79C87.6158 164.669 86.9705 165.396 86.262 165.972C85.5535 166.547 84.7627 166.971 83.8834 167.256C83.0041 167.534 82.0298 167.679 80.9544 167.679L80.9607 167.673Z"/>
    <path d="M105.759 167.452C103.343 167.452 101.464 166.8 100.135 165.491C98.8068 164.188 98.1362 162.361 98.1362 160.014V151.995H94.7644V147.233H94.9479C95.9727 147.233 96.7635 146.973 97.3075 146.461C97.8579 145.949 98.1299 145.177 98.1299 144.153V142.686H103.627V147.226H108.315V151.989H103.627V159.641C103.627 160.324 103.747 160.893 103.994 161.342C104.241 161.791 104.614 162.133 105.133 162.348C105.645 162.569 106.278 162.677 107.037 162.677C107.208 162.677 107.404 162.664 107.625 162.639C107.847 162.614 108.074 162.588 108.321 162.563V167.211C107.954 167.262 107.537 167.306 107.075 167.357C106.613 167.407 106.17 167.433 105.759 167.433V167.452Z"/>
    <path d="M111.914 145.443V139.947H117.411V145.443H111.914ZM111.914 167.237V147.239H117.411V167.237H111.914Z"/>
    <path d="M128.065 167.237L120.189 147.239H126.123L131.582 162.361H129.311L134.77 147.239H140.704L132.828 167.237H128.065Z"/>
    <path d="M152.755 167.673C150.63 167.673 148.789 167.205 147.226 166.263C145.664 165.32 144.456 164.062 143.602 162.474C142.748 160.887 142.317 159.129 142.317 157.2C142.317 155.271 142.76 153.418 143.652 151.856C144.544 150.294 145.746 149.061 147.258 148.156C148.77 147.252 150.484 146.803 152.388 146.803C153.976 146.803 155.381 147.056 156.602 147.555C157.823 148.055 158.854 148.757 159.695 149.661C160.536 150.566 161.182 151.609 161.618 152.792C162.055 153.975 162.276 155.265 162.276 156.656C162.276 157.048 162.257 157.434 162.219 157.807C162.181 158.187 162.118 158.509 162.017 158.775H147.037V154.746H158.904L156.304 156.65C156.551 155.6 156.538 154.664 156.266 153.848C156.001 153.032 155.526 152.381 154.856 151.906C154.185 151.432 153.356 151.192 152.382 151.192C151.408 151.192 150.611 151.426 149.928 151.887C149.244 152.349 148.732 153.032 148.39 153.937C148.049 154.841 147.916 155.941 147.986 157.232C147.891 158.357 148.024 159.344 148.39 160.198C148.757 161.051 149.32 161.716 150.073 162.196C150.832 162.67 151.743 162.911 152.819 162.911C153.793 162.911 154.634 162.715 155.33 162.323C156.026 161.931 156.57 161.393 156.962 160.71L161.359 162.797C160.967 163.771 160.353 164.631 159.512 165.358C158.67 166.092 157.671 166.661 156.526 167.06C155.374 167.464 154.122 167.667 152.755 167.667V167.673Z"/>
    <path d="M16.0461 201.875L25.2758 174.592H32.8228L42.0526 201.875H35.8593L34.0248 196.31H24.0233L22.1887 201.875H16.0334H16.0461ZM25.6048 191.364H32.4559L28.2807 178.475H29.8179L25.6048 191.364Z"/>
    <path d="M44.8359 201.875V181.878H49.9664V186.678L49.5995 185.982C50.036 184.3 50.7635 183.155 51.782 182.561C52.7941 181.96 53.9961 181.662 55.3878 181.662H56.5581V186.425H54.8375C53.4963 186.425 52.4082 186.836 51.5795 187.652C50.7508 188.467 50.3333 189.625 50.3333 191.111V201.875H44.8359Z"/>
    <path d="M69.1596 202.311C67.1542 202.311 65.3576 201.856 63.7571 200.939C62.1566 200.022 60.8851 198.77 59.9488 197.182C59.0062 195.595 58.5381 193.812 58.5381 191.838C58.5381 189.865 58.9999 188.082 59.9298 186.507C60.8598 184.932 62.125 183.693 63.7381 182.788C65.3513 181.884 67.1542 181.435 69.1596 181.435C70.6462 181.435 72.0316 181.694 73.2968 182.206C74.5683 182.719 75.6564 183.433 76.5547 184.35C77.4594 185.267 78.1046 186.349 78.4968 187.588L73.7333 189.637C73.3917 188.638 72.8097 187.841 71.9936 187.26C71.1776 186.671 70.2287 186.38 69.1532 186.38C68.198 186.38 67.3503 186.614 66.6101 187.076C65.8637 187.538 65.2817 188.189 64.8515 189.018C64.4213 189.846 64.2126 190.801 64.2126 191.876C64.2126 192.951 64.4277 193.9 64.8515 194.735C65.2817 195.563 65.8637 196.215 66.6101 196.676C67.3566 197.138 68.2043 197.372 69.1532 197.372C70.254 197.372 71.2029 197.081 72.0126 196.493C72.816 195.905 73.3917 195.114 73.7333 194.115L78.4968 196.202C78.1299 197.372 77.4973 198.422 76.5927 199.352C75.6881 200.281 74.6 201.009 73.3348 201.534C72.0632 202.058 70.6715 202.324 69.1596 202.324V202.311Z"/>
    <path d="M82.0903 201.875V174.156H87.5877V185.837L86.9298 184.957C87.3916 183.762 88.1444 182.877 89.1818 182.301C90.2193 181.726 91.4339 181.441 92.8257 181.441C94.3376 181.441 95.6661 181.757 96.7984 182.396C97.9308 183.029 98.8165 183.914 99.4554 185.052C100.088 186.184 100.411 187.512 100.411 189.024V201.875H94.9133V190.194C94.9133 189.41 94.7614 188.739 94.4578 188.177C94.1541 187.614 93.724 187.177 93.1736 186.861C92.6232 186.545 91.9843 186.387 91.2505 186.387C90.5167 186.387 89.9094 186.545 89.3463 186.861C88.7833 187.177 88.3531 187.62 88.0432 188.177C87.7395 188.739 87.5877 189.41 87.5877 190.194V201.875H82.0903Z"/>
    <path d="M104.396 180.088V174.592H109.893V180.088H104.396ZM104.396 201.875V181.878H109.893V201.875H104.396Z"/>
    <path d="M120.553 201.875L112.677 181.878H118.611L124.07 196.999H121.799L127.258 181.878H133.192L125.316 201.875H120.553Z"/>
    <path d="M145.243 202.311C143.118 202.311 141.277 201.843 139.714 200.901C138.152 199.959 136.944 198.7 136.09 197.113C135.236 195.525 134.805 193.767 134.805 191.838C134.805 189.909 135.248 188.056 136.14 186.494C137.032 184.932 138.234 183.699 139.746 182.795C141.258 181.89 142.972 181.441 144.877 181.441C146.464 181.441 147.869 181.694 149.09 182.194C150.311 182.693 151.342 183.395 152.183 184.3C153.025 185.204 153.67 186.248 154.106 187.43C154.543 188.613 154.764 189.903 154.764 191.294C154.764 191.687 154.745 192.072 154.707 192.445C154.669 192.825 154.606 193.147 154.505 193.413H139.525V189.385H151.392L148.792 191.288C149.039 190.238 149.026 189.302 148.754 188.486C148.489 187.671 148.014 187.019 147.344 186.545C146.673 186.071 145.844 185.83 144.87 185.83C143.896 185.83 143.099 186.064 142.416 186.526C141.732 186.988 141.22 187.671 140.878 188.575C140.537 189.479 140.404 190.58 140.474 191.87C140.379 192.996 140.512 193.982 140.878 194.836C141.245 195.69 141.808 196.354 142.561 196.835C143.32 197.309 144.231 197.549 145.307 197.549C146.281 197.549 147.122 197.353 147.818 196.961C148.514 196.569 149.058 196.031 149.45 195.348L153.847 197.435C153.455 198.409 152.841 199.269 152 199.997C151.158 200.73 150.159 201.3 149.014 201.698C147.862 202.103 146.61 202.305 145.243 202.305V202.311Z"/>
    <path d="M104.635 46.4142L102.459 48.2988C102.845 48.6973 103.326 49.0451 103.762 49.3487L111.822 55.4453L111.834 55.458L127.377 66.5382L130.243 62.3894L109.702 47.9826L127.238 33.8351C127.276 33.93 127.472 34.4106 127.51 34.5055C129.244 39.2171 130.192 44.3082 130.192 49.6206C130.192 55.4896 129.035 61.093 126.935 66.2157L131.679 69.5992C134.387 63.4836 135.886 56.7228 135.886 49.6206C135.886 41.0575 133.71 33.0003 129.876 25.9676C129.705 25.6514 129.781 25.7526 129.604 25.4364L112.119 39.9381L104.641 46.4142H104.635Z"/>
    <path d="M73.9473 48.5076L78.6033 49.5258L67.8047 28.0294C71.9989 29.5409 77.3318 31.6343 78.2744 31.4952L65.9955 19.8457L60.9915 24.5447C61.0675 24.6143 68.3171 39.818 68.3171 39.818L69.5381 42.2086C69.5191 42.6702 69.6393 42.8347 65.1984 42.3477C56.0256 41.3358 48.8898 41.0955 43.0888 40.9816C43.1773 40.6022 43.5506 39.1413 43.6455 38.7681C48.4976 19.7825 65.7551 5.6919 86.2389 5.6919C101.896 5.6919 115.661 13.9135 123.449 26.2713L128.87 24.2285C120.197 9.72682 104.338 0 86.2389 0C60.2071 0 38.787 20.1493 36.7627 45.6616H42.4751C42.4751 45.6616 62.4149 45.7186 73.9473 48.5076Z"/>
    <path d="M113.472 24.627C108.563 27.397 106.172 31.3497 105.476 33.0573L118.179 28.2634L113.472 24.627Z"/>
    <path d="M90.7178 16.5128L95.3358 36.4218L100.099 34.8218L94.3806 10.7261L88.3898 9.66357L81.6399 23.2293L83.3479 30.692L90.7178 16.5128Z"/>
    <path d="M79.4952 82.6969L81.918 69.1376L74.4976 78.2762L79.4952 82.6969Z"/>
    <path d="M130.629 71.8191C128.775 71.1171 126.96 70.4847 125.201 69.9218C123.183 69.2767 121.241 68.7202 119.406 68.2332C110.17 65.8047 103.585 65.2924 103.136 65.2608L100.251 65.0521L98.8404 89.6221L88.6174 70.6428L87.0549 67.4364L83.9361 74.3678L84.7902 75.5505L94.1148 92.8475C91.5591 93.3155 88.9274 93.5558 86.2388 93.5558C71.4105 93.5558 58.2713 86.1753 50.3131 74.8864C50.1802 74.6967 50.6863 74.3615 50.6863 74.3615L73.4918 68.1447L77.2052 62.5477L50.0031 69.7764C49.7501 69.8459 49.5982 69.4981 49.826 69.359L73.2514 55.1861L68.5511 53.2699L46.5807 66.3992C46.3846 66.5446 45.8595 66.9304 45.7393 66.6521C43.5189 61.4156 42.298 55.6605 42.298 49.6271C42.298 49.178 42.3043 48.7353 42.3169 48.2926L36.6867 46.7748C36.6298 47.7171 36.6045 48.6658 36.6045 49.6207C36.6045 76.9861 58.8723 99.2477 86.2388 99.2477C89.9143 99.2477 93.4885 98.8493 96.9362 98.084V98.103L103.376 110.037L104.148 96.5978L104.186 95.8895C113.871 92.1265 122.095 85.3975 127.732 76.828C131.084 78.0549 134.576 79.5348 138.081 81.3056L140.156 77.2201L140.656 76.2272C137.252 74.507 133.88 73.0524 130.629 71.8191ZM104.546 89.5589L105.597 71.2689C108.962 71.7306 114.984 72.7678 122.133 74.9497C117.679 81.2424 111.613 86.3082 104.546 89.5589Z"/>
  </g>
</svg>
